<svg width="1440px" height="48px" viewBox="0 0 1440 48" version="1.1" xmlns="http://www.w3.org/2000/svg" xmlns:xlink="http://www.w3.org/1999/xlink">
    <!-- Generator: Sketch 50.2 (55047) - http://www.bohemiancoding.com/sketch -->
    <desc>Created with Sketch.</desc>
    <defs></defs>
    <g id="Page-1" stroke="none" stroke-width="1" fill="none" fill-rule="evenodd">
        <g id="Untitled" fill="#F4F4F4" fill-rule="nonzero">
            <path d="M0,48 C0,48 0,15.3282149 0,15.3282149 C43.8623754,13.0099937 87.7247509,10.6917724 132,10.4274471 C176.275249,10.1631219 220.963372,11.9526925 253,13.8579846 C285.036628,15.7632766 304.421762,17.7842899 342,19.0854702 C379.578238,20.3866504 435.349582,20.9679976 484,18.4320345 C532.650418,15.8960714 574.179912,10.2427981 610,6.67019184 C645.820088,3.09758556 675.930769,1.60564628 710,4.54652581 C744.069231,7.48740534 782.097011,14.8611037 828,20.3923416 C873.902989,25.9235795 927.681188,29.612357 974,25.4564683 C1020.31881,21.3005796 1059.17824,9.30002468 1098,3.72973118 C1136.82176,-1.84056231 1175.60586,-0.98059441 1213,5.03660259 C1250.39414,11.0537996 1286.39833,22.2282257 1324,24.8030326 C1361.60167,27.3778395 1400.80084,21.3530272 1440,15.3282149 C1440,15.3282149 1440,48 1440,48 L0,48 Z" id="Shape"></path>
        </g>
    </g>
</svg>
