<?xml version="1.0" encoding="utf-8"?>
<svg version="1.1" xmlns:xlink="http://www.w3.org/1999/xlink" width="24px" height="18px" xmlns="http://www.w3.org/2000/svg">
  <g transform="matrix(1 0 0 1 -418 -269 )">
    <path d="M 14.5 12.6  L 15.984375 9.9  L 20.921875 9.9  C 20.9114583333333 9.871875  20.8984375 9.83203125  20.8828125 9.78046875  C 20.8671875 9.72890625  20.8541666666667 9.69375  20.84375 9.675  L 17.53125 3  L 6.46875 3  L 3.15625 9.675  C 3.14583333333333 9.703125  3.1328125 9.74296875  3.1171875 9.79453125  C 3.1015625 9.84609375  3.08854166666667 9.88125  3.078125 9.9  L 8.015625 9.9  L 9.5 12.6  L 14.5 12.6  Z M 23.609375 8.5921875  C 23.8697916666667 9.1640625  24 9.740625  24 10.321875  L 24 17.1  C 24 17.34375  23.9010416666667 17.5546875  23.703125 17.7328125  C 23.5052083333333 17.9109375  23.2708333333333 18  23 18  L 1 18  C 0.729166666666667 18  0.494791666666667 17.9109375  0.296875 17.7328125  C 0.0989583333333333 17.5546875  0 17.34375  0 17.1  L 0 10.321875  C 0 9.740625  0.130208333333333 9.1640625  0.390625 8.5921875  L 4.109375 0.829687500000001  C 4.21354166666667 0.595312499999998  4.40364583333333 0.398437499999999  4.6796875 0.2390625  C 4.95572916666667 0.0796874999999975  5.22916666666667 0  5.5 0  L 18.5 0  C 18.7708333333333 0  19.0442708333333 0.0796874999999975  19.3203125 0.2390625  C 19.5963541666667 0.398437499999999  19.7864583333333 0.595312499999998  19.890625 0.829687500000001  L 23.609375 8.5921875  Z " fill-rule="nonzero" fill="#ffffff" stroke="none" transform="matrix(1 0 0 1 418 269 )" />
  </g>
</svg>