<?xml version="1.0" encoding="utf-8"?>
<svg version="1.1" xmlns:xlink="http://www.w3.org/1999/xlink" width="24px" height="21px" xmlns="http://www.w3.org/2000/svg">
  <g transform="matrix(1 0 0 1 -46 -269 )">
    <path d="M 13.2589285714286 2.68275372604684  C 12.0714285714286 2.16607523066004  10.7946428571429 1.90773598296664  9.42857142857143 1.90773598296664  C 8.0625 1.90773598296664  6.78571428571429 2.16607523066004  5.59821428571429 2.68275372604684  C 4.41071428571429 3.19943222143364  3.46651785714286 3.8999290276792  2.765625 4.78424414478353  C 2.06473214285714 5.66855926188786  1.71428571428571 6.61745919091554  1.71428571428571 7.63094393186657  C 1.71428571428571 8.44570617459191  1.95089285714286 9.23066004258339  2.42410714285714 9.98580553584102  C 2.89732142857143 10.7409510290987  3.5625 11.3967352732434  4.41964285714286 11.9531582682754  L 5.71875 12.7877927608233  L 5.25 14.0397444996451  C 5.55357142857143 13.8410220014194  5.83035714285714 13.6472675656494  6.08035714285714 13.458481192335  L 6.66964285714286 12.9964513839603  L 7.37946428571428 13.1454932576295  C 8.07589285714286 13.2845990063875  8.75892857142857 13.3541518807665  9.42857142857143 13.3541518807665  C 10.7946428571429 13.3541518807665  12.0714285714286 13.0958126330731  13.2589285714286 12.5791341376863  C 14.4464285714286 12.0624556422995  15.390625 11.3619588360539  16.0915178571429 10.4776437189496  C 16.7924107142857 9.59332860184528  17.1428571428571 8.6444286728176  17.1428571428571 7.63094393186657  C 17.1428571428571 6.61745919091554  16.7924107142857 5.66855926188786  16.0915178571429 4.78424414478353  C 15.390625 3.8999290276792  14.4464285714286 3.19943222143364  13.2589285714286 2.68275372604684  Z M 4.69419642857143 1.02093683463449  C 6.14508928571429 0.340312278211497  7.72321428571429 0  9.42857142857143 0  C 11.1339285714286 0  12.7120535714286 0.340312278211497  14.1629464285714 1.02093683463449  C 15.6138392857143 1.70156139105748  16.7589285714286 2.62810503903477  17.5982142857143 3.80056777856636  C 18.4375 4.97303051809794  18.8571428571429 6.24982256919801  18.8571428571429 7.63094393186657  C 18.8571428571429 9.01206529453513  18.4375 10.2888573456352  17.5982142857143 11.4613200851668  C 16.7589285714286 12.6337828246984  15.6138392857143 13.5603264726757  14.1629464285714 14.2409510290987  C 12.7120535714286 14.9215755855216  11.1339285714286 15.2618878637331  9.42857142857143 15.2618878637331  C 8.66071428571429 15.2618878637331  7.875 15.1823988644429  7.07142857142857 15.0234208658623  C 5.96428571428572 15.8977998580554  4.72321428571429 16.5337118523776  3.34821428571429 16.931156848829  C 3.02678571428571 17.0205819730305  2.64285714285714 17.1000709723208  2.19642857142857 17.1696238466998  L 2.15625 17.1696238466998  C 2.05803571428571 17.1696238466998  1.96651785714286 17.1298793470546  1.88169642857143 17.0503903477644  C 1.796875 16.9709013484741  1.74553571428571 16.8665720369056  1.72767857142857 16.7374024130589  C 1.71875 16.7075940383251  1.71428571428571 16.6753016323634  1.71428571428571 16.6405251951739  C 1.71428571428571 16.6057487579844  1.71651785714286 16.5734563520227  1.72098214285714 16.5436479772889  C 1.72544642857143 16.513839602555  1.734375 16.4840312278212  1.74776785714286 16.4542228530873  L 1.78125 16.3797019162527  C 1.78125 16.3797019162527  1.796875 16.3523775727466  1.828125 16.2977288857346  C 1.859375 16.2430801987225  1.87723214285714 16.2182398864443  1.88169642857143 16.2232079488999  C 1.88616071428571 16.2281760113556  1.90625 16.2033356990774  1.94196428571429 16.1486870120653  C 1.97767857142857 16.0940383250532  1.99553571428571 16.0716820440028  1.99553571428571 16.0816181689141  C 2.04017857142857 16.0220014194464  2.14285714285714 15.8977998580554  2.30357142857143 15.709013484741  C 2.46428571428571 15.5202271114265  2.58035714285714 15.3736692689851  2.65178571428571 15.2693399574166  C 2.72321428571429 15.1650106458481  2.82366071428571 15.0209368346345  2.953125 14.8371185237757  C 3.08258928571429 14.653300212917  3.19419642857143 14.4620298083747  3.28794642857143 14.263307310149  C 3.38169642857143 14.0645848119233  3.47321428571429 13.8459900638751  3.5625 13.6075230660043  C 2.45535714285714 12.8921220723918  1.58482142857143 12.0127750177431  0.950892857142857 10.9694819020582  C 0.316964285714286 9.92618878637331  0 8.81334279630944  0 7.63094393186657  C 0 6.24982256919801  0.419642857142857 4.97303051809794  1.25892857142857 3.80056777856636  C 2.09821428571429 2.62810503903477  3.24330357142857 1.70156139105748  4.69419642857143 1.02093683463449  Z M 23.0491071428571 14.7924059616749  C 22.4151785714286 15.8307310149042  21.5446428571429 16.7075940383251  20.4375 17.4229950319375  C 20.5267857142857 17.6614620298084  20.6183035714286 17.8800567778566  20.7120535714286 18.0787792760823  C 20.8058035714286 18.277501774308  20.9174107142857 18.4687721788503  21.046875 18.652590489709  C 21.1763392857143 18.8364088005678  21.2767857142857 18.9804826117814  21.3482142857143 19.0848119233499  C 21.4196428571429 19.1891412349184  21.5357142857143 19.3356990773598  21.6964285714286 19.5244854506742  C 21.8571428571429 19.7132718239886  21.9598214285714 19.8374733853797  22.0044642857143 19.8970901348474  C 22.0133928571429 19.9070262597587  22.03125 19.9293825408091  22.0580357142857 19.9641589779986  C 22.0848214285714 19.9989354151881  22.1049107142857 20.0237757274663  22.1183035714286 20.0386799148332  C 22.1316964285714 20.0535841022001  22.1495535714286 20.0784244144784  22.171875 20.1132008516678  C 22.1941964285714 20.1479772888573  22.2098214285714 20.1753016323634  22.21875 20.1951738821859  L 22.2522321428571 20.2696948190206  C 22.2522321428571 20.2696948190206  22.2611607142857 20.2995031937544  22.2790178571429 20.3591199432221  C 22.296875 20.4187366926899  22.2991071428571 20.4510290986515  22.2857142857143 20.4559971611072  C 22.2723214285714 20.4609652235628  22.2678571428571 20.4932576295245  22.2723214285714 20.5528743789922  C 22.2455357142857 20.6919801277502  22.1875 20.8012775017743  22.0982142857143 20.8807665010646  C 22.0089285714286 20.9602555003549  21.9107142857143 20.9950319375444  21.8035714285714 20.9850958126331  C 21.3571428571429 20.9155429382541  20.9732142857143 20.8360539389638  20.6517857142857 20.7466288147622  C 19.2767857142857 20.3491838183109  18.0357142857143 19.7132718239886  16.9285714285714 18.8388928317956  C 16.125 18.9978708303762  15.3392857142857 19.0773598296664  14.5714285714286 19.0773598296664  C 12.1517857142857 19.0773598296664  10.0446428571429 18.4215755855216  8.25 17.1100070972321  C 8.76785714285714 17.1497515968772  9.16071428571428 17.1696238466998  9.42857142857143 17.1696238466998  C 10.8660714285714 17.1696238466998  12.2455357142857 16.9460610361959  13.5669642857143 16.4989354151881  C 14.8883928571429 16.0518097941803  16.0669642857143 15.4109297374024  17.1026785714286 14.5762952448545  C 18.21875 13.6621717530163  19.0758928571429 12.6089425124202  19.6741071428571 11.416607523066  C 20.2723214285714 10.2242725337119  20.5714285714286 8.96238466997871  20.5714285714286 7.63094393186657  C 20.5714285714286 6.86586231369766  20.46875 6.11071682044003  20.2633928571429 5.36550745209368  C 21.4151785714286 6.07097232079489  22.3258928571429 6.95528743789922  22.9955357142857 8.01845280340667  C 23.6651785714286 9.08161816891412  24 10.2242725337119  24 11.4464158977999  C 24 12.638750887154  23.6830357142857 13.7540809084457  23.0491071428571 14.7924059616749  Z " fill-rule="nonzero" fill="#ffffff" stroke="none" transform="matrix(1 0 0 1 46 269 )" />
  </g>
</svg>