<?xml version="1.0" encoding="utf-8"?>
<svg version="1.1" xmlns:xlink="http://www.w3.org/1999/xlink" width="26px" height="19px" xmlns="http://www.w3.org/2000/svg">
  <g transform="matrix(1 0 0 1 -790 -266 )">
    <path d="M 1.85714285714286 15.5454545454545  L 1.85714285714286 17  L 16.7142857142857 17  L 16.7142857142857 15.5454545454545  L 1.85714285714286 15.5454545454545  Z M 1.85714285714286 9  L 1.85714285714286 10  L 16.7142857142857 10  L 16.7142857142857 9  L 1.85714285714286 9  Z M 24.2008928571429 17.3267045454545  C 24.4717261904762 17.0748106060606  24.6071428571429 16.7689393939394  24.6071428571429 16.4090909090909  C 24.6071428571429 16.0492424242424  24.4717261904762 15.7433712121212  24.2008928571429 15.4914772727273  C 23.9300595238095 15.2395833333333  23.6011904761905 15.1136363636364  23.2142857142857 15.1136363636364  C 22.827380952381 15.1136363636364  22.4985119047619 15.2395833333333  22.2276785714286 15.4914772727273  C 21.9568452380952 15.7433712121212  21.8214285714286 16.0492424242424  21.8214285714286 16.4090909090909  C 21.8214285714286 16.7689393939394  21.9568452380952 17.0748106060606  22.2276785714286 17.3267045454545  C 22.4985119047619 17.5785984848485  22.827380952381 17.7045454545455  23.2142857142857 17.7045454545455  C 23.6011904761905 17.7045454545455  23.9300595238095 17.5785984848485  24.2008928571429 17.3267045454545  Z M 1.85714285714286 2  L 1.85714285714286 3.45454545454545  L 16.7142857142857 3.45454545454545  L 16.7142857142857 2  L 1.85714285714286 2  Z M 24.2008928571429 10.4176136363636  C 24.4717261904762 10.1657196969697  24.6071428571429 9.85984848484848  24.6071428571429 9.5  C 24.6071428571429 9.14015151515151  24.4717261904762 8.8342803030303  24.2008928571429 8.58238636363636  C 23.9300595238095 8.33049242424242  23.6011904761905 8.20454545454545  23.2142857142857 8.20454545454545  C 22.827380952381 8.20454545454545  22.4985119047619 8.33049242424242  22.2276785714286 8.58238636363636  C 21.9568452380952 8.8342803030303  21.8214285714286 9.14015151515151  21.8214285714286 9.5  C 21.8214285714286 9.85984848484848  21.9568452380952 10.1657196969697  22.2276785714286 10.4176136363636  C 22.4985119047619 10.6695075757576  22.827380952381 10.7954545454545  23.2142857142857 10.7954545454545  C 23.6011904761905 10.7954545454545  23.9300595238095 10.6695075757576  24.2008928571429 10.4176136363636  Z M 24.2008928571429 3.50852272727273  C 24.4717261904762 3.25662878787879  24.6071428571429 2.95075757575757  24.6071428571429 2.59090909090909  C 24.6071428571429 2.2310606060606  24.4717261904762 1.92518939393939  24.2008928571429 1.67329545454545  C 23.9300595238095 1.42140151515151  23.6011904761905 1.29545454545455  23.2142857142857 1.29545454545455  C 22.827380952381 1.29545454545455  22.4985119047619 1.42140151515151  22.2276785714286 1.67329545454545  C 21.9568452380952 1.92518939393939  21.8214285714286 2.2310606060606  21.8214285714286 2.59090909090909  C 21.8214285714286 2.95075757575757  21.9568452380952 3.25662878787879  22.2276785714286 3.50852272727273  C 22.4985119047619 3.76041666666666  22.827380952381 3.88636363636364  23.2142857142857 3.88636363636364  C 23.6011904761905 3.88636363636364  23.9300595238095 3.76041666666666  24.2008928571429 3.50852272727273  Z M 0 13.8181818181818  L 26 13.8181818181818  L 26 19  L 0 19  L 0 13.8181818181818  Z M 0 7  L 26 7  L 26 12  L 0 12  L 0 7  Z M 0 0  L 26 0  L 26 5.18181818181818  L 0 5.18181818181818  L 0 0  Z " fill-rule="nonzero" fill="#ffffff" stroke="none" transform="matrix(1 0 0 1 790 266 )" />
  </g>
</svg>