<?xml version="1.0" encoding="utf-8"?>
<svg version="1.1" xmlns:xlink="http://www.w3.org/1999/xlink" width="24px" height="18px" xmlns="http://www.w3.org/2000/svg">
  <g transform="matrix(1 0 0 1 -1173 -263 )">
    <path d="M 23.0480769230769 4.11647727272727  C 23.6826923076923 4.67897727272727  24 5.35227272727273  24 6.13636363636364  L 24 15.1363636363636  C 24 15.9204545454545  23.6826923076923 16.59375  23.0480769230769 17.15625  C 22.4134615384615 17.71875  21.6538461538462 18  20.7692307692308 18  L 3.23076923076923 18  C 2.34615384615385 18  1.58653846153846 17.71875  0.951923076923077 17.15625  C 0.317307692307692 16.59375  0 15.9204545454545  0 15.1363636363636  L 0 2.86363636363636  C 0 2.07954545454545  0.317307692307692 1.40625  0.951923076923077 0.84375  C 1.58653846153846 0.28125  2.34615384615385 0  3.23076923076923 0  L 7.84615384615385 0  C 8.73076923076923 0  9.49038461538462 0.28125  10.125 0.84375  C 10.7596153846154 1.40625  11.0769230769231 2.07954545454545  11.0769230769231 2.86363636363636  L 11.0769230769231 3.27272727272727  L 20.7692307692308 3.27272727272727  C 21.6538461538462 3.27272727272727  22.4134615384615 3.55397727272727  23.0480769230769 4.11647727272727  Z " fill-rule="nonzero" fill="#ffffff" stroke="none" transform="matrix(1 0 0 1 1173 263 )" />
  </g>
</svg>